# xmcd
# 
# Track frame offsets:
#     150
#     16890
#     33930
#     53375
#     69527
#     84561
#     97987
#     112829
#     127468
#     149140
#     169330
#     187382
#     202774
# 
# Disc length: 2929
# 
# Revision: 3
# Processed by: cddbd v1.5.2PL0 Copyright (c) Steve Scherf et al.
# Submitted via: fre:ac v1.0.17
# 
DISCID=b60b6f0d
DTITLE=Judith Lefeber - In My Dreams
DYEAR=2003
DGENRE=blues
TTITLE0=Everybody Does
TTITLE1=Someone Like You
TTITLE2=I Will Follow You
TTITLE3=Just Give Me Your Word
TTITLE4=Falling
TTITLE5=Only In My Dreams
TTITLE6=Touch You
TTITLE7=Is It Love
TTITLE8=Man Of My Dreams
TTITLE9=In A Love Song
TTITLE10=Saving All My Love For You
TTITLE11=The Way You Look At Me
TTITLE12=The Windmills Of Your Mind
EXTD=
EXTT0=
EXTT1=
EXTT2=
EXTT3=
EXTT4=
EXTT5=
EXTT6=
EXTT7=
EXTT8=
EXTT9=
EXTT10=
EXTT11=
EXTT12=
PLAYORDER=
